<svg xmlns="http://www.w3.org/2000/svg" viewBox="0 0 32.46 30.02"><defs><style>.cls-1{fill-rule:evenodd;}</style></defs><title>Ресурс 1</title><g id="Слой_2" data-name="Слой 2"><g id="_9" data-name="9"><path class="cls-1" d="M30.81,21.29c-.82-.4-4.73-2.32-5.47-2.58s-1.28-.4-1.79.4A38.76,38.76,0,0,1,21,22.2c-.45.54-.91.6-1.73.2a21.64,21.64,0,0,1-6.41-3.94A24.2,24.2,0,0,1,8.42,13c-.45-.79,0-1.22.37-1.62S9.58,10.43,10,10l.28-.37a9.92,9.92,0,0,0,.51-1,1.49,1.49,0,0,0-.06-1.39C10.52,6.86,8.9,3,8.25,1.39S6.92.06,6.43.06,5.44,0,4.9,0A3,3,0,0,0,2.78,1,9,9,0,0,0,0,7.6a9.53,9.53,0,0,0,.4,2.69,18,18,0,0,0,2.86,5.5c.4.54,5.53,8.79,13.63,12s8.11,2.13,9.58,2,4.73-1.93,5.39-3.77a6.52,6.52,0,0,0,.48-3.77,4.72,4.72,0,0,0-1.53-.91Z"/></g></g></svg>