<svg xmlns="http://www.w3.org/2000/svg" viewBox="0 0 24 24"><path d="M7.5 2C4.5 2 2 4.5 2 7.5 2 8.7 2.4 9.9 3.1 10.8 3 11.2 3 11.6 3 12 3 17 7 21 12 21 12.4 21 12.8 21 13.2 20.9 14.1 21.6 15.3 22 16.5 22 19.5 22 22 19.5 22 16.5 22 15.3 21.6 14.1 20.9 13.2 21 12.8 21 12.4 21 12 21 7 17 3 12 3 11.6 3 11.2 3 10.8 3.1 9.9 2.4 8.7 2 7.5 2zM7.5 4C8.3 4 9 4.2 9.6 4.7L10.2 5.2 11 5.1C11.4 5 11.7 5 12 5 15.9 5 19 8.1 19 12 19 12.3 19 12.6 18.9 13L18.8 13.8 19.3 14.4C19.8 15 20 15.7 20 16.5 20 18.4 18.4 20 16.5 20 15.7 20 15 19.8 14.4 19.3L13.8 18.8 13 18.9C12.6 19 12.3 19 12 19 8.1 19 5 15.9 5 12 5 11.7 5 11.4 5.1 11L5.2 10.2 4.7 9.6C4.2 9 4 8.3 4 7.5 4 5.6 5.6 4 7.5 4zM11.8 7C8.1 7 7.8 9.2 7.8 9.8 7.8 10.8 8.4 11.7 9.5 12.1 10.6 12.5 12 12.8 12.8 13 14 13.3 13.8 14 13.8 14.1 13.8 15.1 12.4 15.4 11.8 15.3 11.1 15.3 10.5 15.5 9.7 14 9.6 13.7 9.4 13.1 8.7 13.1 8.4 13.1 7.6 13.4 7.6 14.1 7.6 15.5 9.2 17 12 17 13.4 17 16.1 16.5 16.1 13.9 16.1 11.6 13.9 11.2 12.2 10.8 11.7 10.7 10 10.5 10 9.6 10 9.3 10.4 8.7 11.7 8.7 13.1 8.7 13.4 9.3 13.6 9.7 13.7 9.9 13.9 10.1 14 10.2 14.6 10.6 15.2 10.3 15.4 10.1 15.6 9.9 15.7 9.7 15.7 9.4 15.7 8.3 14.4 7 11.8 7z"/></svg>