<svg xmlns="http://www.w3.org/2000/svg" viewBox="0 0 66.36 53.1">
        <path class="cls-1" d="M66.36,6.29a27.54,27.54,0,0,1-7.8,2.1,13.43,13.43,0,0,0,6-7.43A27,27,0,0,1,55.9,4.22,13.73,13.73,0,0,0,46,0,13.51,13.51,0,0,0,32.34,13.41a13.27,13.27,0,0,0,.34,3,38.81,38.81,0,0,1-28.06-14A13.3,13.3,0,0,0,8.84,20.35a14.12,14.12,0,0,1-6.18-1.67v.14A13.21,13.21,0,0,0,3.6,23.7a13.61,13.61,0,0,0,10,8.28,13.76,13.76,0,0,1-3.6.48,12.58,12.58,0,0,1-2.55-.25,13.54,13.54,0,0,0,12.7,9.3A27.51,27.51,0,0,1,3.26,47.26,24.71,24.71,0,0,1,0,47.06a39.14,39.14,0,0,0,20.89,6C42.15,53.1,55.25,38.36,58.68,23A35.92,35.92,0,0,0,59.61,15c0-.6,0-1.16,0-1.76a26.65,26.65,0,0,0,6.78-6.92Z"/>
</svg>