<svg xmlns="http://www.w3.org/2000/svg" viewBox="0 0 140 140" width="140">
    <path class="st161" d="M127.6 114.7c-1.5 3.8-7.1 10.8-11.1 13.8 -3.6 2.7-6.1 3.8-9.5 3.9 -2.8 0.1-3.9-0.1-7.4-1.6 -27.6-11.4-49.7-28.4-67.2-51.7 -9.1-12.2-16.1-24.8-20.9-37.9 -2.8-7.6-2.9-11-0.6-14.9 1-1.6 5.2-5.7 8.2-8 5.1-3.8 7.4-5.2 9.3-5.6 1.3-0.3 3.5-0.1 4.9 0.4 0.7 0.2 1.7 0.8 2.4 1.2 3.7 2.5 14.2 15.8 17.6 22.4 1.9 3.8 2.6 6.6 2 8.7 -0.6 2.2-1.7 3.4-6.3 7.2 -1.9 1.5-3.6 3.1-3.9 3.5 -0.7 1-1.3 3-1.3 4.4 0 3.3 2.2 9.2 4.9 13.8 2.2 3.6 6 8.1 9.9 11.6 4.5 4.1 8.5 6.9 13 9.2 5.8 2.9 9.3 3.6 11.9 2.4 0.6-0.3 1.3-0.7 1.6-0.9 0.2-0.2 1.7-2 3.4-4.1 3.2-4 3.9-4.7 6.1-5.4 2.8-0.9 5.6-0.7 8.5 0.8 2.2 1.1 6.9 4 9.9 6.2 4 2.8 12.6 9.8 13.8 11.2C128.6 107.9 128.9 111.2 127.6 114.7z"/><path class="st79" d="M126.5 105.4c-1.2-1.4-9.7-8.4-13.8-11.2 -3.1-2.1-7.8-5-9.9-6.2 -2.9-1.5-5.7-1.7-8.5-0.8 -0.4 0.2-0.8 0.3-1.2 0.5 0 0 0 0.1-0.1 0.1 -1.7 2-3.2 3.9-3.4 4.1 -0.2 0.2-0.9 0.6-1.5 0.9 -1.6 2-3.1 3.8-3.3 4 -0.2 0.2-0.9 0.6-1.6 0.9 -2.6 1.2-6.1 0.5-11.9-2.4 -4.5-2.2-8.5-5-13-9.2 -3.8-3.5-7.7-8.1-9.9-11.6 -2.8-4.6-4.9-10.5-4.9-13.8 0-1.4 0.6-3.4 1.3-4.4 0.3-0.4 2-2 3.9-3.5 0.1-0.1 0.3-0.2 0.4-0.3 0.2-0.4 0.4-0.8 0.5-1 0.3-0.4 2-2 3.9-3.5 0.3-0.2 0.6-0.4 0.8-0.7 0.3-0.5 0.5-1.1 0.7-1.7 0.6-2.1 0-4.9-2-8.7 -3.4-6.6-13.8-19.9-17.6-22.4 -0.6-0.4-1.7-0.9-2.4-1.2 -1.4-0.5-3.6-0.7-4.9-0.4 -1.9 0.4-4.2 1.8-9.3 5.6 -0.8 0.6-1.7 1.4-2.6 2.2 -0.3 0.4-0.6 0.7-0.7 1 -2.3 3.9-2.1 7.2 0.6 14.9 4.8 13.1 11.7 25.7 20.9 37.9 17.5 23.3 39.6 40.3 67.2 51.7 3.5 1.5 4.7 1.7 7.4 1.6 3.4-0.2 5.9-1.2 9.5-3.9 0.2-0.1 0.3-0.2 0.5-0.4 2.6-3 4.9-6.4 5.8-8.6C128.9 111.2 128.6 107.9 126.5 105.4z"/><path class="st166" d="M54.1 8.7c1.2-1.1 2-1.2 6.1-1.1 2.1 0.1 5.3 0.3 7 0.5C76 9.2 83 11.3 90.7 15c7.6 3.7 12.4 7.2 18.9 13.6 6 6 9.3 10.6 12.9 17.7 4.9 9.9 7.7 21.6 8.2 34.6 0.2 4.4 0.1 5.4-1 6.7 -1.9 2.4-6.1 2-7.6-0.7 -0.5-0.9-0.6-1.7-0.7-5.2 -0.3-5.4-0.6-8.9-1.4-13.1C117 52.1 109.1 39 96.5 29.6 86.1 21.7 75.2 17.9 61 17c-4.8-0.3-5.6-0.5-6.7-1.3C52.3 14.2 52.2 10.4 54.1 8.7z"/><path class="st161" d="M84.2 41.2c-5.1-3-12.6-5.3-19.4-5.8 -2.5-0.2-3.8-0.7-4.8-1.8 -1.4-1.6-1.6-3.9-0.4-5.7 1.3-2 3.3-2.4 9.4-1.5 15.3 2.2 27.2 9.4 35 20.9 4.4 6.5 7.1 14.2 8 22.4 0.3 3 0.3 8.5 0 9.4 -0.3 0.9-1.4 2-2.3 2.5 -1 0.5-3.1 0.5-4.2-0.2 -1.9-1-2.5-2.5-2.5-6.8 0-6.5-1.7-13.4-4.6-18.8C95 49.7 90.2 44.7 84.2 41.2z"/><path class="st79" d="M92.8 74.8c-1.5 1.4-4.2 1.4-5.9 0.1 -1.2-0.9-1.6-1.9-1.9-4.5 -0.3-3.5-0.9-5.9-2-8.1 -2.2-4.8-6.1-7.2-12.8-8.1 -3.1-0.4-4-0.7-5.1-1.9 -1.8-2.2-1.1-5.8 1.4-7.1 1-0.5 1.4-0.5 3.5-0.4 1.3 0.1 3.3 0.3 4.3 0.5 5 1.1 8.8 3 12 6 4.2 4 6.5 8.8 7.5 15.6C94.6 71.6 94.4 73.4 92.8 74.8z"/><path class="st26" d="M61 17c14.2 0.8 25 4.7 35.5 12.5 12.6 9.4 20.5 22.5 23.5 39 0.8 4.2 1.1 7.7 1.4 13.1 0.1 3.5 0.3 4.3 0.7 5.2 1.4 2.7 5.7 3.2 7.6 0.7 1-1.3 1.1-2.2 1-6.7 -0.5-12.9-3.3-24.7-8.2-34.6 -3.5-7.1-6.9-11.7-12.9-17.7 -6.4-6.4-11.3-9.9-18.9-13.6C83 11.3 76 9.2 67.3 8.1c-1.7-0.2-4.9-0.5-7-0.5 -4.1-0.1-5 0-6.1 1.1 -1.9 1.7-1.8 5.5 0.2 7.1C55.4 16.6 56.2 16.8 61 17z"/><path class="st26" d="M103 74.6c0 4.2 0.6 5.8 2.5 6.8 1.2 0.6 3.3 0.7 4.2 0.2 0.9-0.5 2-1.6 2.3-2.5 0.4-0.9 0.4-6.4 0-9.4 -0.9-8.2-3.7-15.8-8-22.4 -7.8-11.6-19.7-18.7-35-20.9 -6-0.9-8.1-0.6-9.4 1.5 -1.2 1.8-1.1 4.1 0.4 5.7 0.9 1.1 2.3 1.6 4.8 1.8 6.8 0.6 14.4 2.8 19.4 5.8 5.9 3.5 10.8 8.5 14.1 14.7C101.3 61.2 103 68.1 103 74.6z"/><path class="st26" d="M74.4 45.5c-1-0.2-3-0.5-4.3-0.5 -2.1-0.1-2.5-0.1-3.5 0.4 -2.6 1.3-3.3 4.9-1.4 7.1 1 1.2 1.9 1.5 5.1 1.9 6.6 0.8 10.5 3.3 12.8 8.1 1 2.2 1.6 4.7 2 8.1 0.3 2.6 0.7 3.6 1.9 4.5 1.7 1.3 4.4 1.2 5.9-0.1 1.6-1.5 1.9-3.2 1.2-7.7 -1-6.9-3.3-11.7-7.5-15.6C83.2 48.4 79.4 46.5 74.4 45.5z"/><path class="st26" d="M126.5 105.4c-1.2-1.4-9.7-8.4-13.8-11.2 -3.1-2.1-7.8-5-9.9-6.2 -2.9-1.5-5.7-1.7-8.5-0.8 -2.2 0.7-2.9 1.4-6.1 5.4 -1.7 2-3.2 3.9-3.4 4.1 -0.1 0-0.1 0.1-0.2 0.2 -0.3 0.2-0.8 0.4-1.2 0.7v0c0 0-0.1 0-0.1 0 -2.6 1.2-6.1 0.5-11.9-2.4 -4.5-2.2-8.5-5-13-9.2 -3.8-3.5-7.7-8.1-9.9-11.6 -2.8-4.6-4.9-10.5-4.9-13.8 0-1.4 0.6-3.4 1.3-4.4 0 0 0.1-0.1 0.2-0.2 0 0 0.1-0.1 0.1-0.1 0 0 0.1-0.1 0.1-0.1 0.1-0.1 0.1-0.1 0.2-0.2 0 0 0.1-0.1 0.1-0.1 0.1-0.1 0.2-0.2 0.3-0.3 0 0 0 0 0 0 0.7-0.7 1.8-1.6 2.9-2.5 4.7-3.8 5.7-4.9 6.3-7.2 0.6-2.1 0-4.9-2-8.7 -3.4-6.6-13.8-19.9-17.6-22.4 -0.6-0.4-1.7-0.9-2.4-1.2 -1.4-0.5-3.6-0.7-4.9-0.4 -1.9 0.4-4.2 1.8-9.3 5.6 -3 2.3-7.2 6.4-8.2 8 -2.3 3.9-2.1 7.2 0.6 14.9 3.6 10 8.6 19.8 14.8 29.3 0 0.1 0.1 0.1 0.1 0.2 0.9 1.4 1.8 2.8 2.8 4.1 1 1.5 2.1 2.9 3.2 4.3 10.1 13.5 21.8 24.9 35.2 34.3 0.9 0.7 1.9 1.3 2.8 2 0.6 0.4 1.2 0.8 1.8 1.1 0.8 0.5 1.6 1.1 2.5 1.6 0.6 0.4 1.3 0.8 1.9 1.1 0.8 0.5 1.6 1 2.5 1.5 0.6 0.4 1.3 0.7 1.9 1.1 0.8 0.5 1.7 0.9 2.6 1.4 0.6 0.3 1.3 0.7 1.9 1 0.9 0.5 1.8 0.9 2.7 1.4 0.6 0.3 1.2 0.6 1.9 0.9 1 0.5 2.1 1 3.1 1.5 0.5 0.2 1.1 0.5 1.6 0.7 1.6 0.7 3.2 1.4 4.8 2.1 3.5 1.5 4.7 1.7 7.4 1.6 3.4-0.2 5.9-1.2 9.5-3.9 4-3 9.6-10 11.1-13.8C128.9 111.2 128.6 107.9 126.5 105.4z"/>
</svg>